<svg width="412" height="473" viewBox="0 0 412 473" fill="none" xmlns="http://www.w3.org/2000/svg">
<g id="container">
<rect id="bg" x="0.568359" y="0.288086" width="410.747" height="472.123" rx="10" fill="#DCDCDC"/>
<g id="img">
<rect id="Rectangle 21" x="31.2754" y="37.2002" width="154.804" height="97.8942" rx="5" fill="white"/>
<g id="Mask Group">
<mask id="mask0" mask-type="alpha" maskUnits="userSpaceOnUse" x="31" y="37" width="156" height="99">
<rect id="Rectangle 22" x="31.2754" y="37.2002" width="154.804" height="97.8942" rx="5" fill="white"/>
</mask>
<g mask="url(#mask0)">
<path id="Vector 2" d="M117.819 96.7882C75.8235 59.3333 38.8416 81.182 25.6001 96.7882V149.282H195.851V96.7882C187.338 112.394 159.814 134.243 117.819 96.7882Z" fill="#62EBC2"/>
</g>
</g>
</g>
<rect id="l1" x="221.388" y="37.2002" width="151.807" height="24" rx="12" fill="#A167FF"/>
<rect id="l2" x="221.388" y="72.1465" width="151.807" height="24" rx="12" fill="#8489FF"/>
<rect id="l3" x="221.388" y="107.093" width="151.807" height="24" rx="12" fill="#6369F3"/>
<rect id="l4" x="31.2754" y="197" width="341.92" height="24" rx="12" fill="#0DBD53"/>
<rect id="l5" x="31.2754" y="246.5" width="207.138" height="24" rx="12" fill="#31DA75"/>
<rect id="l6" x="259.694" y="246.5" width="113.501" height="24" rx="12" fill="#7DD29F"/>
<rect id="l7" x="31.2754" y="296" width="113.501" height="24" rx="12" fill="#B859DA"/>
<rect id="l8" x="166.057" y="296" width="207.138" height="24" rx="12" fill="#C772E6"/>
<rect id="l9" x="31.2754" y="345.5" width="341.92" height="24" rx="12" fill="#D56B7E"/>
<rect id="l10" x="31.2754" y="395" width="190.113" height="24" rx="12" fill="#DC4863"/>
<rect id="l11" x="238.413" y="395" width="134.782" height="24" rx="12" fill="#D03350"/>
</g>
</svg>
