<svg width="1440" height="852" viewBox="0 0 1440 852" fill="none" xmlns="http://www.w3.org/2000/svg">
<path fill-rule="evenodd" clip-rule="evenodd" d="M496.645 219.703C481.361 204.786 450.922 199.61 408.896 222.316C367.017 244.942 312.332 295.725 245.894 395.429C172.297 422.615 96.1424 444.871 39.5548 458.993C36.4822 459.76 34.6265 462.94 35.41 466.096C36.1935 469.251 39.3195 471.188 42.3922 470.421C95.8443 457.082 166.612 436.539 236.353 411.436C226.7 429.551 218.059 452.388 217.436 473.642C217.03 487.5 220.027 501.177 228.905 512.284C237.796 523.409 251.937 531.144 272.237 534.41C275.375 534.915 278.29 532.724 278.747 529.516C279.205 526.307 277.032 523.298 273.894 522.793C255.513 519.835 244.33 513.12 237.757 504.897C231.171 496.656 228.563 486.086 228.914 474.128C229.604 450.59 241.727 423.608 253.398 405.2C319.12 380.756 382.889 352.31 428.859 322.061C452.029 306.816 471.01 290.899 483.404 274.533C495.817 258.143 502.067 240.664 498.322 222.768C498.078 221.599 497.493 220.53 496.645 219.703ZM414.343 232.731C376.685 253.077 326.428 298.523 264.734 388.337C324.581 365.375 381.189 339.378 422.575 312.146C445.254 297.223 463.03 282.142 474.3 267.26C485.031 253.091 489.458 239.683 487.436 226.956C476.541 217.702 452.51 212.11 414.343 232.731ZM548.816 217.781C549.644 214.656 547.834 211.407 544.773 210.523C541.712 209.64 538.559 211.457 537.731 214.582C531.399 238.482 525.154 278.452 526.824 321.244C528.492 363.962 538.077 410.239 564.101 446.045C566.004 448.665 569.603 449.231 572.139 447.311C574.675 445.391 575.188 441.712 573.284 439.092C549.239 406.008 539.92 362.47 538.298 320.907C536.679 279.417 542.759 240.64 548.816 217.781ZM370.756 437.074C363.724 438.656 353.891 443.402 346.35 452.588C338.652 461.965 333.619 475.643 335.995 494.32C336.091 495.079 336.331 495.813 336.701 496.482C338.596 499.906 341.752 503.15 346.223 504.814C350.752 506.5 356.017 506.338 361.701 504.04C369.971 500.696 379.58 492.668 390.647 477.822C391.296 482.387 392.698 486.991 395.421 490.74C399.297 496.077 405.284 498.906 412.964 498.252C420.212 497.634 428.922 493.954 439.407 486.952C442.05 485.187 442.771 481.546 441.018 478.82C439.265 476.094 435.702 475.314 433.06 477.079C423.2 483.663 416.372 486.149 411.884 486.532C407.826 486.877 405.877 485.538 404.607 483.79C403.023 481.609 401.971 477.972 401.712 473.135C401.46 468.429 401.997 463.286 402.915 458.785C403.482 456.003 402.015 453.181 399.434 452.089C396.852 450.997 393.899 451.949 392.425 454.349C376.664 480 364.892 490.057 357.38 493.095C353.799 494.543 351.458 494.295 350.037 493.766C348.886 493.338 347.941 492.576 347.228 491.626C345.644 476.82 349.746 466.827 355.174 460.215C360.917 453.219 368.44 449.664 373.34 448.562C376.43 447.867 378.356 444.732 377.643 441.56C376.929 438.387 373.846 436.379 370.756 437.074ZM1119.16 203.163C1119.81 199.991 1117.81 196.854 1114.71 196.157C1111.61 195.459 1108.56 197.465 1107.92 200.637C1103.01 224.725 1103.96 289.391 1144.05 362.628C1144.07 362.653 1144.08 362.678 1144.09 362.703C1144.11 362.725 1144.12 362.746 1144.13 362.768L1144.15 362.798C1153.87 379.252 1171.9 400.565 1194.61 409.913C1206.11 414.649 1218.91 416.341 1232.29 412.622C1243.77 409.43 1255.28 402.364 1266.55 390.532C1268.92 394.56 1271.55 398.571 1274.31 402.151C1278.55 407.654 1283.83 413.125 1289.6 415.172C1292.73 416.285 1296.3 416.478 1299.74 414.799C1303.05 413.182 1305.47 410.209 1307.24 406.628C1310.69 399.637 1312.67 388.313 1313.19 371.856C1313.2 371.615 1313.19 371.374 1313.17 371.134C1311.8 355.579 1310.63 338.439 1310.2 323.752C1309.99 316.405 1309.96 309.737 1310.17 304.221C1310.23 302.728 1310.31 301.349 1310.4 300.085C1314.84 311.111 1321.07 332.03 1329.54 366.744C1330.2 369.423 1332.58 371.299 1335.26 371.258C1337.95 371.217 1340.23 369.27 1340.75 366.573C1344.32 347.917 1352.55 319.026 1365.5 293.288C1378.61 267.238 1395.77 245.974 1416.51 240.028C1419.55 239.155 1421.3 235.911 1420.41 232.783C1419.53 229.655 1416.34 227.827 1413.3 228.7C1387.74 236.031 1368.66 261.205 1355.28 287.807C1346.33 305.591 1339.57 324.711 1334.94 341.259C1328.9 318.19 1324.11 303.027 1320.34 294.091C1319.11 291.169 1317.91 288.727 1316.71 286.826C1315.65 285.127 1314.1 283.043 1311.9 281.894C1310.64 281.238 1309 280.804 1307.18 281.151C1305.38 281.493 1304.07 282.466 1303.19 283.412C1301.62 285.104 1300.84 287.356 1300.39 289.045C1299.41 292.697 1298.93 297.854 1298.7 303.619C1298.47 309.509 1298.5 316.473 1298.72 323.971C1299.16 338.857 1300.33 356.098 1301.71 371.701C1301.18 387.642 1299.23 396.672 1296.98 401.223C1295.89 403.431 1295 404.027 1294.7 404.171C1294.54 404.252 1294.19 404.397 1293.25 404.064C1290.87 403.221 1287.36 400.211 1283.29 394.93C1279.92 390.552 1276.65 385.272 1273.89 380.126C1277.17 370.265 1280.58 355.445 1281.22 339.822C1281.91 322.926 1279.39 304.093 1268.84 289.793C1267.64 288.16 1265.7 287.272 1263.72 287.445C1253.98 288.299 1242.93 295.203 1240.38 311.412C1238.06 326.234 1242.98 348.113 1260.59 379.781C1249.62 392.036 1239 398.535 1229.16 401.27C1218.57 404.215 1208.36 402.947 1198.79 399.008C1179.39 391.022 1163.07 372.184 1154.01 356.878C1115.23 285.995 1114.86 224.266 1119.16 203.163ZM1269.74 339.197C1269.36 348.658 1267.85 357.839 1266.02 365.556C1252.79 339.635 1250.18 323.202 1251.72 313.407C1253.03 305.045 1257.41 301.218 1261.71 299.802C1268.3 310.602 1270.33 324.808 1269.74 339.197ZM1000.22 269.856C1001.69 272.577 1000.86 275.952 998.376 277.604C998.284 277.769 998.109 278.139 997.917 278.837C997.468 280.463 997.132 283.17 997.239 287.308C997.451 295.551 999.386 308.347 1004.32 327.038C1013.49 361.765 1032.76 415.962 1069.32 497.395C1069.9 491.352 1070.44 484.474 1070.88 477.006L1071.43 423.266C1071.46 420.082 1073.96 417.532 1077.07 417.514C1080.18 417.495 1082.77 420.015 1082.9 423.197C1083.74 442.275 1083.31 461.074 1082.38 477.229C1082.57 478.739 1083.23 479.241 1083.58 479.356C1084.39 479.625 1088.1 479.971 1096.67 473.623C1099.22 471.73 1102.82 472.335 1104.7 474.973C1106.57 477.612 1106.02 481.286 1103.47 483.179C1094.93 489.504 1087.56 492.281 1081.43 490.897C1080.43 503.398 1079.21 513.447 1078.28 519.509C1077.89 522.055 1075.92 524.023 1073.42 524.361C1070.93 524.699 1068.49 523.327 1067.41 520.979C1025.18 428.773 1003.34 368.261 993.237 329.987C988.194 310.882 986.007 297.063 985.76 287.486C985.636 282.713 985.985 278.709 986.863 275.523C987.706 272.467 989.304 269.238 992.404 267.5C995.172 265.948 998.67 267.003 1000.22 269.856ZM856.312 393.625C856.403 390.47 854.044 387.778 850.969 387.524C847.894 387.271 845.2 389.548 844.866 392.682C836.932 467.107 826.23 519.633 816.135 554.985C811.087 572.664 806.207 585.99 801.93 595.583C798.31 603.704 795.241 608.877 793.03 611.757C791.648 611.716 790.168 611.107 788.412 609.574C785.803 607.294 782.99 603.255 780.148 597.264C774.496 585.348 769.616 567.653 765.546 547.086C757.435 506.101 752.86 455.439 751.146 421.264C750.995 418.262 748.661 415.834 745.733 415.632C742.805 415.43 740.223 417.52 739.747 420.478C719.921 543.496 701.217 619.294 685.975 664.017C678.343 686.41 671.662 700.763 666.284 709.303C663.585 713.588 661.367 716.162 659.718 717.562C658.73 718.402 658.171 718.637 657.996 718.697C654.951 718.452 652.255 720.702 651.91 723.835C651.554 727.057 653.82 729.995 656.971 730.395C660.849 730.888 664.341 728.999 667.107 726.649C669.984 724.206 672.927 720.562 675.954 715.756C682.028 706.113 689.057 690.786 696.821 668.004C710.297 628.464 726.236 565.712 743.182 469.429C745.679 495.681 749.327 524.206 754.293 549.297C758.412 570.113 763.52 589.002 769.831 602.306C772.971 608.926 776.635 614.656 781.018 618.485C785.594 622.482 791.21 624.571 797.426 623C798.474 622.735 799.423 622.172 800.166 621.375C803.718 617.564 807.894 610.643 812.385 600.567C816.939 590.352 821.997 576.481 827.159 558.404C834.117 534.037 841.294 501.923 847.68 460.64C849.645 478.479 852.694 496.736 857.169 513.685C862.52 533.951 870.024 552.796 880.5 566.832C891.07 580.994 904.944 590.574 922.664 591.176C925.834 591.284 928.46 588.74 928.529 585.494C928.599 582.249 926.085 579.53 922.915 579.422C909.577 578.969 898.67 571.918 889.594 559.757C880.422 547.468 873.416 530.297 868.251 510.735C857.934 471.658 855.418 424.832 856.312 393.625ZM929.307 541.159C929.242 547.915 929.566 554.562 930.154 560.862C930.069 560.838 929.984 560.814 929.9 560.789C927.856 560.178 926.497 559.278 925.721 558.289C924.676 556.957 922.764 552.613 929.307 541.159ZM928.125 531.796C928.692 532.156 929.178 532.6 929.577 533.101C930.196 522.419 931.902 511.7 935.188 501.865C942.325 480.502 957.16 462.894 984.218 459.782C984.321 459.77 984.426 459.761 984.53 459.755C993.176 459.249 1006.17 461.852 1011.8 474.04C1017.26 485.859 1014.12 503.558 998.947 528.939L998.932 528.963C993.851 537.367 984.792 549.589 973.934 559.112C965.369 566.622 954.671 573.332 943.402 573.825C943.943 577.04 944.541 580.076 945.173 582.883C954.074 599.339 963.202 607.263 971.56 610.265C979.921 613.269 988.699 611.768 997.724 606.796C1016.15 596.647 1033.26 573.246 1043.38 554.187C1044.89 551.348 1048.37 550.324 1051.16 551.9C1053.95 553.476 1054.99 557.056 1053.48 559.895C1043.04 579.549 1024.62 605.394 1003.25 617.167C992.38 623.157 980.196 625.787 967.869 621.358C955.657 616.971 944.51 606.082 934.73 587.725C934.482 587.258 934.296 586.76 934.176 586.243C933.25 582.227 932.392 577.792 931.661 573.06C930.059 572.875 928.416 572.559 926.799 572.076C923.313 571.034 919.546 569.091 916.801 565.592C910.841 557.994 912.232 547.047 920.235 533.671C921.884 530.916 925.416 530.077 928.125 531.796ZM941.803 562.084C939.889 543.832 940.327 522.935 946.057 505.784C952.142 487.571 963.941 474.023 985.467 471.488C992.349 471.125 998.885 473.456 1001.43 478.968C1004.16 484.889 1004.07 497.743 989.144 522.702C984.505 530.372 976.165 541.586 966.408 550.142C957.872 557.628 949.358 562.128 941.803 562.084Z" fill="#131313"/>
</svg>
